<mxfile host="app.diagrams.net" modified="2023-06-26T06:18:36.247Z" agent="Mozilla/5.0 (Windows NT 10.0; Win64; x64) AppleWebKit/537.36 (KHTML, like Gecko) Chrome/114.0.0.0 Safari/537.36" etag="xHARaPIJ3m3eeQ5Bk6GP" version="21.5.0" type="device">
  <diagram id="iNOomS0VF1XWc2shuGPR" name="Page-1">
    <mxGraphModel dx="1674" dy="1091" grid="1" gridSize="10" guides="1" tooltips="1" connect="1" arrows="1" fold="1" page="0" pageScale="1" pageWidth="827" pageHeight="1169" math="0" shadow="0">
      <root>
        <mxCell id="WIyWlLk6GJQsqaUBKTNV-0" />
        <mxCell id="WIyWlLk6GJQsqaUBKTNV-1" parent="WIyWlLk6GJQsqaUBKTNV-0" />
        <mxCell id="S-XCRsjCBczuYcGHaSrh-62" style="edgeStyle=orthogonalEdgeStyle;rounded=0;orthogonalLoop=1;jettySize=auto;html=1;entryX=0;entryY=0.5;entryDx=0;entryDy=0;" parent="WIyWlLk6GJQsqaUBKTNV-1" source="IihSVDn7CHxnLTr5yz14-75" target="S-XCRsjCBczuYcGHaSrh-24" edge="1">
          <mxGeometry relative="1" as="geometry" />
        </mxCell>
        <mxCell id="S-XCRsjCBczuYcGHaSrh-63" style="edgeStyle=orthogonalEdgeStyle;rounded=0;orthogonalLoop=1;jettySize=auto;html=1;entryX=0;entryY=0.5;entryDx=0;entryDy=0;" parent="WIyWlLk6GJQsqaUBKTNV-1" source="IihSVDn7CHxnLTr5yz14-75" target="S-XCRsjCBczuYcGHaSrh-25" edge="1">
          <mxGeometry relative="1" as="geometry" />
        </mxCell>
        <mxCell id="S-XCRsjCBczuYcGHaSrh-65" style="edgeStyle=orthogonalEdgeStyle;rounded=0;orthogonalLoop=1;jettySize=auto;html=1;entryX=0;entryY=0.5;entryDx=0;entryDy=0;" parent="WIyWlLk6GJQsqaUBKTNV-1" source="IihSVDn7CHxnLTr5yz14-75" target="S-XCRsjCBczuYcGHaSrh-26" edge="1">
          <mxGeometry relative="1" as="geometry" />
        </mxCell>
        <mxCell id="S-XCRsjCBczuYcGHaSrh-66" style="edgeStyle=orthogonalEdgeStyle;rounded=0;orthogonalLoop=1;jettySize=auto;html=1;entryX=0;entryY=0.5;entryDx=0;entryDy=0;" parent="WIyWlLk6GJQsqaUBKTNV-1" source="IihSVDn7CHxnLTr5yz14-75" target="S-XCRsjCBczuYcGHaSrh-27" edge="1">
          <mxGeometry relative="1" as="geometry" />
        </mxCell>
        <mxCell id="IihSVDn7CHxnLTr5yz14-75" value="Utilizator neautentificat" style="shape=umlActor;verticalLabelPosition=bottom;verticalAlign=top;html=1;outlineConnect=0;" parent="WIyWlLk6GJQsqaUBKTNV-1" vertex="1">
          <mxGeometry x="800" y="370" width="80" height="140" as="geometry" />
        </mxCell>
        <mxCell id="IihSVDn7CHxnLTr5yz14-81" value="" style="endArrow=none;html=1;rounded=0;" parent="WIyWlLk6GJQsqaUBKTNV-1" edge="1">
          <mxGeometry width="50" height="50" relative="1" as="geometry">
            <mxPoint x="1120" y="440" as="sourcePoint" />
            <mxPoint x="1240" y="440" as="targetPoint" />
          </mxGeometry>
        </mxCell>
        <mxCell id="IihSVDn7CHxnLTr5yz14-82" value="Utilizator neautentificat" style="text;html=1;strokeColor=none;fillColor=none;align=center;verticalAlign=middle;whiteSpace=wrap;rounded=0;" parent="WIyWlLk6GJQsqaUBKTNV-1" vertex="1">
          <mxGeometry x="1150" y="410" width="60" height="30" as="geometry" />
        </mxCell>
        <mxCell id="S-XCRsjCBczuYcGHaSrh-52" style="edgeStyle=orthogonalEdgeStyle;rounded=0;orthogonalLoop=1;jettySize=auto;html=1;entryX=0;entryY=0.5;entryDx=0;entryDy=0;" parent="WIyWlLk6GJQsqaUBKTNV-1" source="IihSVDn7CHxnLTr5yz14-83" target="S-XCRsjCBczuYcGHaSrh-34" edge="1">
          <mxGeometry relative="1" as="geometry">
            <Array as="points">
              <mxPoint x="1040" y="980" />
              <mxPoint x="1040" y="1420" />
            </Array>
          </mxGeometry>
        </mxCell>
        <mxCell id="S-XCRsjCBczuYcGHaSrh-53" style="edgeStyle=orthogonalEdgeStyle;rounded=0;orthogonalLoop=1;jettySize=auto;html=1;entryX=0;entryY=0.5;entryDx=0;entryDy=0;" parent="WIyWlLk6GJQsqaUBKTNV-1" source="IihSVDn7CHxnLTr5yz14-83" target="S-XCRsjCBczuYcGHaSrh-33" edge="1">
          <mxGeometry relative="1" as="geometry">
            <Array as="points">
              <mxPoint x="1040" y="980" />
              <mxPoint x="1040" y="1310" />
            </Array>
          </mxGeometry>
        </mxCell>
        <mxCell id="S-XCRsjCBczuYcGHaSrh-54" style="edgeStyle=orthogonalEdgeStyle;rounded=0;orthogonalLoop=1;jettySize=auto;html=1;entryX=0;entryY=0.5;entryDx=0;entryDy=0;" parent="WIyWlLk6GJQsqaUBKTNV-1" source="IihSVDn7CHxnLTr5yz14-83" target="S-XCRsjCBczuYcGHaSrh-32" edge="1">
          <mxGeometry relative="1" as="geometry">
            <Array as="points">
              <mxPoint x="1040" y="980" />
              <mxPoint x="1040" y="1200" />
            </Array>
          </mxGeometry>
        </mxCell>
        <mxCell id="S-XCRsjCBczuYcGHaSrh-55" style="edgeStyle=orthogonalEdgeStyle;rounded=0;orthogonalLoop=1;jettySize=auto;html=1;entryX=0;entryY=0.5;entryDx=0;entryDy=0;" parent="WIyWlLk6GJQsqaUBKTNV-1" source="IihSVDn7CHxnLTr5yz14-83" target="S-XCRsjCBczuYcGHaSrh-31" edge="1">
          <mxGeometry relative="1" as="geometry">
            <Array as="points">
              <mxPoint x="1040" y="980" />
              <mxPoint x="1040" y="1090" />
            </Array>
          </mxGeometry>
        </mxCell>
        <mxCell id="S-XCRsjCBczuYcGHaSrh-56" style="edgeStyle=orthogonalEdgeStyle;rounded=0;orthogonalLoop=1;jettySize=auto;html=1;entryX=0;entryY=0.5;entryDx=0;entryDy=0;" parent="WIyWlLk6GJQsqaUBKTNV-1" source="IihSVDn7CHxnLTr5yz14-83" target="S-XCRsjCBczuYcGHaSrh-30" edge="1">
          <mxGeometry relative="1" as="geometry" />
        </mxCell>
        <mxCell id="S-XCRsjCBczuYcGHaSrh-57" style="edgeStyle=orthogonalEdgeStyle;rounded=0;orthogonalLoop=1;jettySize=auto;html=1;entryX=0;entryY=0.5;entryDx=0;entryDy=0;" parent="WIyWlLk6GJQsqaUBKTNV-1" source="IihSVDn7CHxnLTr5yz14-83" target="S-XCRsjCBczuYcGHaSrh-29" edge="1">
          <mxGeometry relative="1" as="geometry">
            <Array as="points">
              <mxPoint x="1040" y="980" />
              <mxPoint x="1040" y="880" />
            </Array>
          </mxGeometry>
        </mxCell>
        <mxCell id="S-XCRsjCBczuYcGHaSrh-58" style="edgeStyle=orthogonalEdgeStyle;rounded=0;orthogonalLoop=1;jettySize=auto;html=1;entryX=0;entryY=0.5;entryDx=0;entryDy=0;" parent="WIyWlLk6GJQsqaUBKTNV-1" source="IihSVDn7CHxnLTr5yz14-83" target="S-XCRsjCBczuYcGHaSrh-28" edge="1">
          <mxGeometry relative="1" as="geometry">
            <Array as="points">
              <mxPoint x="1040" y="980" />
              <mxPoint x="1040" y="760" />
            </Array>
          </mxGeometry>
        </mxCell>
        <mxCell id="S-XCRsjCBczuYcGHaSrh-59" style="edgeStyle=orthogonalEdgeStyle;rounded=0;orthogonalLoop=1;jettySize=auto;html=1;entryX=0;entryY=0.5;entryDx=0;entryDy=0;" parent="WIyWlLk6GJQsqaUBKTNV-1" source="IihSVDn7CHxnLTr5yz14-83" target="S-XCRsjCBczuYcGHaSrh-27" edge="1">
          <mxGeometry relative="1" as="geometry">
            <Array as="points">
              <mxPoint x="1040" y="980" />
              <mxPoint x="1040" y="620" />
            </Array>
          </mxGeometry>
        </mxCell>
        <mxCell id="S-XCRsjCBczuYcGHaSrh-61" style="edgeStyle=orthogonalEdgeStyle;rounded=0;orthogonalLoop=1;jettySize=auto;html=1;entryX=0;entryY=0.5;entryDx=0;entryDy=0;" parent="WIyWlLk6GJQsqaUBKTNV-1" source="IihSVDn7CHxnLTr5yz14-83" target="S-XCRsjCBczuYcGHaSrh-26" edge="1">
          <mxGeometry relative="1" as="geometry">
            <Array as="points">
              <mxPoint x="1040" y="980" />
              <mxPoint x="1040" y="520" />
            </Array>
          </mxGeometry>
        </mxCell>
        <mxCell id="IihSVDn7CHxnLTr5yz14-83" value="Utilizator autentificat" style="shape=umlActor;verticalLabelPosition=bottom;verticalAlign=top;html=1;outlineConnect=0;" parent="WIyWlLk6GJQsqaUBKTNV-1" vertex="1">
          <mxGeometry x="800" y="910" width="80" height="140" as="geometry" />
        </mxCell>
        <mxCell id="IihSVDn7CHxnLTr5yz14-85" value="Utilizator autentificat" style="text;html=1;strokeColor=none;fillColor=none;align=center;verticalAlign=middle;whiteSpace=wrap;rounded=0;" parent="WIyWlLk6GJQsqaUBKTNV-1" vertex="1">
          <mxGeometry x="1150" y="680" width="60" height="30" as="geometry" />
        </mxCell>
        <mxCell id="IihSVDn7CHxnLTr5yz14-88" value="" style="endArrow=none;html=1;rounded=0;" parent="WIyWlLk6GJQsqaUBKTNV-1" edge="1">
          <mxGeometry width="50" height="50" relative="1" as="geometry">
            <mxPoint x="1120" y="680" as="sourcePoint" />
            <mxPoint x="1240" y="680" as="targetPoint" />
          </mxGeometry>
        </mxCell>
        <mxCell id="IihSVDn7CHxnLTr5yz14-90" value="Zona comuna" style="text;html=1;strokeColor=none;fillColor=none;align=center;verticalAlign=middle;whiteSpace=wrap;rounded=0;" parent="WIyWlLk6GJQsqaUBKTNV-1" vertex="1">
          <mxGeometry x="1150" y="440" width="60" height="30" as="geometry" />
        </mxCell>
        <mxCell id="S-XCRsjCBczuYcGHaSrh-24" value="Autentificare" style="ellipse;whiteSpace=wrap;html=1;" parent="WIyWlLk6GJQsqaUBKTNV-1" vertex="1">
          <mxGeometry x="1120" y="220" width="120" height="80" as="geometry" />
        </mxCell>
        <mxCell id="S-XCRsjCBczuYcGHaSrh-48" style="edgeStyle=orthogonalEdgeStyle;rounded=0;orthogonalLoop=1;jettySize=auto;html=1;entryX=0.5;entryY=1;entryDx=0;entryDy=0;" parent="WIyWlLk6GJQsqaUBKTNV-1" source="S-XCRsjCBczuYcGHaSrh-25" target="S-XCRsjCBczuYcGHaSrh-24" edge="1">
          <mxGeometry relative="1" as="geometry" />
        </mxCell>
        <mxCell id="S-XCRsjCBczuYcGHaSrh-25" value="Inregistrare" style="ellipse;whiteSpace=wrap;html=1;" parent="WIyWlLk6GJQsqaUBKTNV-1" vertex="1">
          <mxGeometry x="1120" y="320" width="120" height="80" as="geometry" />
        </mxCell>
        <mxCell id="S-XCRsjCBczuYcGHaSrh-26" value="Acasa" style="ellipse;whiteSpace=wrap;html=1;" parent="WIyWlLk6GJQsqaUBKTNV-1" vertex="1">
          <mxGeometry x="1120" y="480" width="120" height="80" as="geometry" />
        </mxCell>
        <mxCell id="S-XCRsjCBczuYcGHaSrh-27" value="Magazin" style="ellipse;whiteSpace=wrap;html=1;" parent="WIyWlLk6GJQsqaUBKTNV-1" vertex="1">
          <mxGeometry x="1120" y="580" width="120" height="80" as="geometry" />
        </mxCell>
        <mxCell id="S-XCRsjCBczuYcGHaSrh-28" value="Vizualizare sold" style="ellipse;whiteSpace=wrap;html=1;" parent="WIyWlLk6GJQsqaUBKTNV-1" vertex="1">
          <mxGeometry x="1120" y="720" width="120" height="80" as="geometry" />
        </mxCell>
        <mxCell id="S-XCRsjCBczuYcGHaSrh-29" value="Publicare model" style="ellipse;whiteSpace=wrap;html=1;" parent="WIyWlLk6GJQsqaUBKTNV-1" vertex="1">
          <mxGeometry x="1120" y="840" width="120" height="80" as="geometry" />
        </mxCell>
        <mxCell id="S-XCRsjCBczuYcGHaSrh-30" value="Cos de cumparaturi" style="ellipse;whiteSpace=wrap;html=1;" parent="WIyWlLk6GJQsqaUBKTNV-1" vertex="1">
          <mxGeometry x="1120" y="940" width="120" height="80" as="geometry" />
        </mxCell>
        <mxCell id="S-XCRsjCBczuYcGHaSrh-31" value="Profil" style="ellipse;whiteSpace=wrap;html=1;" parent="WIyWlLk6GJQsqaUBKTNV-1" vertex="1">
          <mxGeometry x="1120" y="1050" width="120" height="80" as="geometry" />
        </mxCell>
        <mxCell id="S-XCRsjCBczuYcGHaSrh-32" value="Istoric comenzi" style="ellipse;whiteSpace=wrap;html=1;" parent="WIyWlLk6GJQsqaUBKTNV-1" vertex="1">
          <mxGeometry x="1120" y="1160" width="120" height="80" as="geometry" />
        </mxCell>
        <mxCell id="S-XCRsjCBczuYcGHaSrh-33" value="Modele publicate" style="ellipse;whiteSpace=wrap;html=1;" parent="WIyWlLk6GJQsqaUBKTNV-1" vertex="1">
          <mxGeometry x="1120" y="1270" width="120" height="80" as="geometry" />
        </mxCell>
        <mxCell id="S-XCRsjCBczuYcGHaSrh-34" value="Deconectare" style="ellipse;whiteSpace=wrap;html=1;" parent="WIyWlLk6GJQsqaUBKTNV-1" vertex="1">
          <mxGeometry x="1120" y="1380" width="120" height="80" as="geometry" />
        </mxCell>
        <mxCell id="S-XCRsjCBczuYcGHaSrh-43" style="edgeStyle=orthogonalEdgeStyle;rounded=0;orthogonalLoop=1;jettySize=auto;html=1;dashed=1;" parent="WIyWlLk6GJQsqaUBKTNV-1" source="S-XCRsjCBczuYcGHaSrh-38" target="S-XCRsjCBczuYcGHaSrh-28" edge="1">
          <mxGeometry relative="1" as="geometry" />
        </mxCell>
        <mxCell id="S-XCRsjCBczuYcGHaSrh-38" value="Incarcare sold" style="ellipse;whiteSpace=wrap;html=1;" parent="WIyWlLk6GJQsqaUBKTNV-1" vertex="1">
          <mxGeometry x="1320" y="720" width="120" height="80" as="geometry" />
        </mxCell>
        <mxCell id="S-XCRsjCBczuYcGHaSrh-42" style="edgeStyle=orthogonalEdgeStyle;rounded=0;orthogonalLoop=1;jettySize=auto;html=1;entryX=1;entryY=0.5;entryDx=0;entryDy=0;dashed=1;" parent="WIyWlLk6GJQsqaUBKTNV-1" source="S-XCRsjCBczuYcGHaSrh-67" target="S-XCRsjCBczuYcGHaSrh-27" edge="1">
          <mxGeometry relative="1" as="geometry" />
        </mxCell>
        <mxCell id="S-XCRsjCBczuYcGHaSrh-70" style="edgeStyle=orthogonalEdgeStyle;rounded=0;orthogonalLoop=1;jettySize=auto;html=1;entryX=1;entryY=0.5;entryDx=0;entryDy=0;dashed=1;" parent="WIyWlLk6GJQsqaUBKTNV-1" source="S-XCRsjCBczuYcGHaSrh-39" target="S-XCRsjCBczuYcGHaSrh-67" edge="1">
          <mxGeometry relative="1" as="geometry" />
        </mxCell>
        <mxCell id="S-XCRsjCBczuYcGHaSrh-39" value="Adaugare in cos" style="ellipse;whiteSpace=wrap;html=1;" parent="WIyWlLk6GJQsqaUBKTNV-1" vertex="1">
          <mxGeometry x="1540" y="580" width="120" height="80" as="geometry" />
        </mxCell>
        <mxCell id="S-XCRsjCBczuYcGHaSrh-44" style="edgeStyle=orthogonalEdgeStyle;rounded=0;orthogonalLoop=1;jettySize=auto;html=1;dashed=1;" parent="WIyWlLk6GJQsqaUBKTNV-1" source="S-XCRsjCBczuYcGHaSrh-40" target="S-XCRsjCBczuYcGHaSrh-30" edge="1">
          <mxGeometry relative="1" as="geometry" />
        </mxCell>
        <mxCell id="S-XCRsjCBczuYcGHaSrh-40" value="Plasare comanda" style="ellipse;whiteSpace=wrap;html=1;" parent="WIyWlLk6GJQsqaUBKTNV-1" vertex="1">
          <mxGeometry x="1320" y="940" width="120" height="80" as="geometry" />
        </mxCell>
        <mxCell id="S-XCRsjCBczuYcGHaSrh-45" style="edgeStyle=orthogonalEdgeStyle;rounded=0;orthogonalLoop=1;jettySize=auto;html=1;entryX=1;entryY=0.5;entryDx=0;entryDy=0;dashed=1;" parent="WIyWlLk6GJQsqaUBKTNV-1" source="S-XCRsjCBczuYcGHaSrh-41" target="S-XCRsjCBczuYcGHaSrh-31" edge="1">
          <mxGeometry relative="1" as="geometry" />
        </mxCell>
        <mxCell id="S-XCRsjCBczuYcGHaSrh-41" value="Editare profil" style="ellipse;whiteSpace=wrap;html=1;" parent="WIyWlLk6GJQsqaUBKTNV-1" vertex="1">
          <mxGeometry x="1320" y="1050" width="120" height="80" as="geometry" />
        </mxCell>
        <mxCell id="S-XCRsjCBczuYcGHaSrh-68" style="edgeStyle=orthogonalEdgeStyle;rounded=0;orthogonalLoop=1;jettySize=auto;html=1;entryX=1;entryY=0.5;entryDx=0;entryDy=0;dashed=1;" parent="WIyWlLk6GJQsqaUBKTNV-1" source="S-XCRsjCBczuYcGHaSrh-67" target="S-XCRsjCBczuYcGHaSrh-27" edge="1">
          <mxGeometry relative="1" as="geometry" />
        </mxCell>
        <mxCell id="S-XCRsjCBczuYcGHaSrh-67" value="Vizualizare Produs" style="ellipse;whiteSpace=wrap;html=1;" parent="WIyWlLk6GJQsqaUBKTNV-1" vertex="1">
          <mxGeometry x="1330" y="580" width="120" height="80" as="geometry" />
        </mxCell>
        <mxCell id="S-XCRsjCBczuYcGHaSrh-72" style="edgeStyle=orthogonalEdgeStyle;rounded=0;orthogonalLoop=1;jettySize=auto;html=1;entryX=1;entryY=0.5;entryDx=0;entryDy=0;dashed=1;" parent="WIyWlLk6GJQsqaUBKTNV-1" source="S-XCRsjCBczuYcGHaSrh-71" target="S-XCRsjCBczuYcGHaSrh-67" edge="1">
          <mxGeometry relative="1" as="geometry" />
        </mxCell>
        <mxCell id="S-XCRsjCBczuYcGHaSrh-71" value="Randare Model" style="ellipse;whiteSpace=wrap;html=1;" parent="WIyWlLk6GJQsqaUBKTNV-1" vertex="1">
          <mxGeometry x="1540" y="470" width="120" height="80" as="geometry" />
        </mxCell>
        <mxCell id="LRPS0VtPIhEllnDsEcMT-0" style="edgeStyle=orthogonalEdgeStyle;rounded=0;orthogonalLoop=1;jettySize=auto;html=1;entryX=0;entryY=0.5;entryDx=0;entryDy=0;" edge="1" parent="WIyWlLk6GJQsqaUBKTNV-1" source="LRPS0VtPIhEllnDsEcMT-4" target="LRPS0VtPIhEllnDsEcMT-8">
          <mxGeometry relative="1" as="geometry" />
        </mxCell>
        <mxCell id="LRPS0VtPIhEllnDsEcMT-1" style="edgeStyle=orthogonalEdgeStyle;rounded=0;orthogonalLoop=1;jettySize=auto;html=1;entryX=0;entryY=0.5;entryDx=0;entryDy=0;" edge="1" parent="WIyWlLk6GJQsqaUBKTNV-1" source="LRPS0VtPIhEllnDsEcMT-4" target="LRPS0VtPIhEllnDsEcMT-10">
          <mxGeometry relative="1" as="geometry" />
        </mxCell>
        <mxCell id="LRPS0VtPIhEllnDsEcMT-2" style="edgeStyle=orthogonalEdgeStyle;rounded=0;orthogonalLoop=1;jettySize=auto;html=1;entryX=0;entryY=0.5;entryDx=0;entryDy=0;" edge="1" parent="WIyWlLk6GJQsqaUBKTNV-1" source="LRPS0VtPIhEllnDsEcMT-4" target="LRPS0VtPIhEllnDsEcMT-11">
          <mxGeometry relative="1" as="geometry" />
        </mxCell>
        <mxCell id="LRPS0VtPIhEllnDsEcMT-3" style="edgeStyle=orthogonalEdgeStyle;rounded=0;orthogonalLoop=1;jettySize=auto;html=1;entryX=0;entryY=0.5;entryDx=0;entryDy=0;" edge="1" parent="WIyWlLk6GJQsqaUBKTNV-1" source="LRPS0VtPIhEllnDsEcMT-4" target="LRPS0VtPIhEllnDsEcMT-12">
          <mxGeometry relative="1" as="geometry" />
        </mxCell>
        <mxCell id="LRPS0VtPIhEllnDsEcMT-4" value="Utilizator neautentificat" style="shape=umlActor;verticalLabelPosition=bottom;verticalAlign=top;html=1;outlineConnect=0;" vertex="1" parent="WIyWlLk6GJQsqaUBKTNV-1">
          <mxGeometry x="2040" y="400" width="80" height="140" as="geometry" />
        </mxCell>
        <mxCell id="LRPS0VtPIhEllnDsEcMT-8" value="Autentificare" style="ellipse;whiteSpace=wrap;html=1;" vertex="1" parent="WIyWlLk6GJQsqaUBKTNV-1">
          <mxGeometry x="2230" y="280" width="120" height="80" as="geometry" />
        </mxCell>
        <mxCell id="LRPS0VtPIhEllnDsEcMT-9" style="edgeStyle=orthogonalEdgeStyle;rounded=0;orthogonalLoop=1;jettySize=auto;html=1;entryX=0.5;entryY=1;entryDx=0;entryDy=0;" edge="1" parent="WIyWlLk6GJQsqaUBKTNV-1" source="LRPS0VtPIhEllnDsEcMT-10" target="LRPS0VtPIhEllnDsEcMT-8">
          <mxGeometry relative="1" as="geometry" />
        </mxCell>
        <mxCell id="LRPS0VtPIhEllnDsEcMT-10" value="Inregistrare" style="ellipse;whiteSpace=wrap;html=1;" vertex="1" parent="WIyWlLk6GJQsqaUBKTNV-1">
          <mxGeometry x="2230" y="380" width="120" height="80" as="geometry" />
        </mxCell>
        <mxCell id="LRPS0VtPIhEllnDsEcMT-11" value="Acasa" style="ellipse;whiteSpace=wrap;html=1;" vertex="1" parent="WIyWlLk6GJQsqaUBKTNV-1">
          <mxGeometry x="2230" y="480" width="120" height="80" as="geometry" />
        </mxCell>
        <mxCell id="LRPS0VtPIhEllnDsEcMT-12" value="Magazin" style="ellipse;whiteSpace=wrap;html=1;" vertex="1" parent="WIyWlLk6GJQsqaUBKTNV-1">
          <mxGeometry x="2230" y="580" width="120" height="80" as="geometry" />
        </mxCell>
        <mxCell id="LRPS0VtPIhEllnDsEcMT-13" style="edgeStyle=orthogonalEdgeStyle;rounded=0;orthogonalLoop=1;jettySize=auto;html=1;entryX=1;entryY=0.5;entryDx=0;entryDy=0;dashed=1;" edge="1" parent="WIyWlLk6GJQsqaUBKTNV-1" source="LRPS0VtPIhEllnDsEcMT-17" target="LRPS0VtPIhEllnDsEcMT-12">
          <mxGeometry relative="1" as="geometry" />
        </mxCell>
        <mxCell id="LRPS0VtPIhEllnDsEcMT-16" style="edgeStyle=orthogonalEdgeStyle;rounded=0;orthogonalLoop=1;jettySize=auto;html=1;entryX=1;entryY=0.5;entryDx=0;entryDy=0;dashed=1;" edge="1" parent="WIyWlLk6GJQsqaUBKTNV-1" source="LRPS0VtPIhEllnDsEcMT-17" target="LRPS0VtPIhEllnDsEcMT-12">
          <mxGeometry relative="1" as="geometry" />
        </mxCell>
        <mxCell id="LRPS0VtPIhEllnDsEcMT-17" value="Vizualizare Produs" style="ellipse;whiteSpace=wrap;html=1;" vertex="1" parent="WIyWlLk6GJQsqaUBKTNV-1">
          <mxGeometry x="2390" y="580" width="120" height="80" as="geometry" />
        </mxCell>
        <mxCell id="LRPS0VtPIhEllnDsEcMT-18" style="edgeStyle=orthogonalEdgeStyle;rounded=0;orthogonalLoop=1;jettySize=auto;html=1;entryX=1;entryY=0.5;entryDx=0;entryDy=0;dashed=1;" edge="1" parent="WIyWlLk6GJQsqaUBKTNV-1" source="LRPS0VtPIhEllnDsEcMT-19" target="LRPS0VtPIhEllnDsEcMT-17">
          <mxGeometry relative="1" as="geometry" />
        </mxCell>
        <mxCell id="LRPS0VtPIhEllnDsEcMT-19" value="Randare Model" style="ellipse;whiteSpace=wrap;html=1;" vertex="1" parent="WIyWlLk6GJQsqaUBKTNV-1">
          <mxGeometry x="2550" y="580" width="120" height="80" as="geometry" />
        </mxCell>
        <mxCell id="LRPS0VtPIhEllnDsEcMT-107" style="edgeStyle=orthogonalEdgeStyle;rounded=0;orthogonalLoop=1;jettySize=auto;html=1;entryX=0;entryY=0.5;entryDx=0;entryDy=0;fontSize=16;" edge="1" parent="WIyWlLk6GJQsqaUBKTNV-1" source="LRPS0VtPIhEllnDsEcMT-30" target="LRPS0VtPIhEllnDsEcMT-39">
          <mxGeometry relative="1" as="geometry">
            <Array as="points">
              <mxPoint x="2170" y="1220" />
              <mxPoint x="2170" y="1400" />
            </Array>
          </mxGeometry>
        </mxCell>
        <mxCell id="LRPS0VtPIhEllnDsEcMT-108" style="edgeStyle=orthogonalEdgeStyle;rounded=0;orthogonalLoop=1;jettySize=auto;html=1;entryX=0;entryY=0.5;entryDx=0;entryDy=0;fontSize=16;" edge="1" parent="WIyWlLk6GJQsqaUBKTNV-1" source="LRPS0VtPIhEllnDsEcMT-30" target="LRPS0VtPIhEllnDsEcMT-40">
          <mxGeometry relative="1" as="geometry">
            <Array as="points">
              <mxPoint x="2170" y="1220" />
              <mxPoint x="2170" y="1490" />
            </Array>
          </mxGeometry>
        </mxCell>
        <mxCell id="LRPS0VtPIhEllnDsEcMT-109" style="edgeStyle=orthogonalEdgeStyle;rounded=0;orthogonalLoop=1;jettySize=auto;html=1;entryX=0;entryY=0.5;entryDx=0;entryDy=0;fontSize=16;" edge="1" parent="WIyWlLk6GJQsqaUBKTNV-1" source="LRPS0VtPIhEllnDsEcMT-30" target="LRPS0VtPIhEllnDsEcMT-41">
          <mxGeometry relative="1" as="geometry">
            <Array as="points">
              <mxPoint x="2170" y="1220" />
              <mxPoint x="2170" y="1580" />
            </Array>
          </mxGeometry>
        </mxCell>
        <mxCell id="LRPS0VtPIhEllnDsEcMT-111" style="edgeStyle=orthogonalEdgeStyle;rounded=0;orthogonalLoop=1;jettySize=auto;html=1;entryX=0;entryY=0.5;entryDx=0;entryDy=0;fontSize=16;" edge="1" parent="WIyWlLk6GJQsqaUBKTNV-1" source="LRPS0VtPIhEllnDsEcMT-30" target="LRPS0VtPIhEllnDsEcMT-37">
          <mxGeometry relative="1" as="geometry">
            <Array as="points">
              <mxPoint x="2160" y="1220" />
              <mxPoint x="2160" y="1220" />
            </Array>
          </mxGeometry>
        </mxCell>
        <mxCell id="LRPS0VtPIhEllnDsEcMT-112" style="edgeStyle=orthogonalEdgeStyle;rounded=0;orthogonalLoop=1;jettySize=auto;html=1;entryX=0;entryY=0.5;entryDx=0;entryDy=0;fontSize=16;" edge="1" parent="WIyWlLk6GJQsqaUBKTNV-1" source="LRPS0VtPIhEllnDsEcMT-30" target="LRPS0VtPIhEllnDsEcMT-34">
          <mxGeometry relative="1" as="geometry">
            <Array as="points">
              <mxPoint x="2170" y="1220" />
              <mxPoint x="2170" y="950" />
            </Array>
          </mxGeometry>
        </mxCell>
        <mxCell id="LRPS0VtPIhEllnDsEcMT-30" value="Utilizator autentificat" style="shape=umlActor;verticalLabelPosition=bottom;verticalAlign=top;html=1;outlineConnect=0;direction=east;fontSize=16;" vertex="1" parent="WIyWlLk6GJQsqaUBKTNV-1">
          <mxGeometry x="2040" y="1150" width="80" height="140" as="geometry" />
        </mxCell>
        <mxCell id="LRPS0VtPIhEllnDsEcMT-33" value="Acasa" style="ellipse;whiteSpace=wrap;html=1;direction=east;fontSize=16;" vertex="1" parent="WIyWlLk6GJQsqaUBKTNV-1">
          <mxGeometry x="2230" y="820" width="120" height="80" as="geometry" />
        </mxCell>
        <mxCell id="LRPS0VtPIhEllnDsEcMT-29" style="edgeStyle=orthogonalEdgeStyle;rounded=0;orthogonalLoop=1;jettySize=auto;html=1;entryX=0;entryY=0.5;entryDx=0;entryDy=0;fontSize=16;" edge="1" parent="WIyWlLk6GJQsqaUBKTNV-1" source="LRPS0VtPIhEllnDsEcMT-30" target="LRPS0VtPIhEllnDsEcMT-33">
          <mxGeometry relative="1" as="geometry">
            <Array as="points">
              <mxPoint x="2170" y="1220" />
              <mxPoint x="2170" y="860" />
            </Array>
          </mxGeometry>
        </mxCell>
        <mxCell id="LRPS0VtPIhEllnDsEcMT-34" value="Magazin" style="ellipse;whiteSpace=wrap;html=1;direction=east;fontSize=16;" vertex="1" parent="WIyWlLk6GJQsqaUBKTNV-1">
          <mxGeometry x="2230" y="910" width="120" height="80" as="geometry" />
        </mxCell>
        <mxCell id="LRPS0VtPIhEllnDsEcMT-35" value="Vizualizare sold" style="ellipse;whiteSpace=wrap;html=1;direction=east;fontSize=16;" vertex="1" parent="WIyWlLk6GJQsqaUBKTNV-1">
          <mxGeometry x="2230" y="1000" width="120" height="80" as="geometry" />
        </mxCell>
        <mxCell id="LRPS0VtPIhEllnDsEcMT-27" style="edgeStyle=orthogonalEdgeStyle;rounded=0;orthogonalLoop=1;jettySize=auto;html=1;entryX=0;entryY=0.5;entryDx=0;entryDy=0;fontSize=16;" edge="1" parent="WIyWlLk6GJQsqaUBKTNV-1" source="LRPS0VtPIhEllnDsEcMT-30" target="LRPS0VtPIhEllnDsEcMT-35">
          <mxGeometry relative="1" as="geometry">
            <Array as="points">
              <mxPoint x="2170" y="1220" />
              <mxPoint x="2170" y="1030" />
              <mxPoint x="2230" y="1030" />
            </Array>
          </mxGeometry>
        </mxCell>
        <mxCell id="LRPS0VtPIhEllnDsEcMT-36" value="Publicare model" style="ellipse;whiteSpace=wrap;html=1;direction=east;fontSize=16;" vertex="1" parent="WIyWlLk6GJQsqaUBKTNV-1">
          <mxGeometry x="2230" y="1090" width="120" height="80" as="geometry" />
        </mxCell>
        <mxCell id="LRPS0VtPIhEllnDsEcMT-26" style="edgeStyle=orthogonalEdgeStyle;rounded=0;orthogonalLoop=1;jettySize=auto;html=1;entryX=0;entryY=0.5;entryDx=0;entryDy=0;fontSize=16;" edge="1" parent="WIyWlLk6GJQsqaUBKTNV-1" source="LRPS0VtPIhEllnDsEcMT-30" target="LRPS0VtPIhEllnDsEcMT-36">
          <mxGeometry relative="1" as="geometry">
            <Array as="points">
              <mxPoint x="2170" y="1220" />
              <mxPoint x="2170" y="1130" />
            </Array>
          </mxGeometry>
        </mxCell>
        <mxCell id="LRPS0VtPIhEllnDsEcMT-37" value="Cos de cumparaturi" style="ellipse;whiteSpace=wrap;html=1;direction=east;fontSize=16;" vertex="1" parent="WIyWlLk6GJQsqaUBKTNV-1">
          <mxGeometry x="2230" y="1180" width="120" height="80" as="geometry" />
        </mxCell>
        <mxCell id="LRPS0VtPIhEllnDsEcMT-38" value="Profil" style="ellipse;whiteSpace=wrap;html=1;direction=east;fontSize=16;" vertex="1" parent="WIyWlLk6GJQsqaUBKTNV-1">
          <mxGeometry x="2230" y="1270" width="120" height="80" as="geometry" />
        </mxCell>
        <mxCell id="LRPS0VtPIhEllnDsEcMT-24" style="edgeStyle=orthogonalEdgeStyle;rounded=0;orthogonalLoop=1;jettySize=auto;html=1;entryX=0;entryY=0.5;entryDx=0;entryDy=0;fontSize=16;" edge="1" parent="WIyWlLk6GJQsqaUBKTNV-1" source="LRPS0VtPIhEllnDsEcMT-30" target="LRPS0VtPIhEllnDsEcMT-38">
          <mxGeometry relative="1" as="geometry">
            <Array as="points">
              <mxPoint x="2170" y="1220" />
              <mxPoint x="2170" y="1310" />
            </Array>
          </mxGeometry>
        </mxCell>
        <mxCell id="LRPS0VtPIhEllnDsEcMT-39" value="Istoric comenzi" style="ellipse;whiteSpace=wrap;html=1;direction=east;fontSize=16;" vertex="1" parent="WIyWlLk6GJQsqaUBKTNV-1">
          <mxGeometry x="2230" y="1360" width="120" height="80" as="geometry" />
        </mxCell>
        <mxCell id="LRPS0VtPIhEllnDsEcMT-40" value="Modele publicate" style="ellipse;whiteSpace=wrap;html=1;direction=east;fontSize=16;" vertex="1" parent="WIyWlLk6GJQsqaUBKTNV-1">
          <mxGeometry x="2230" y="1450" width="120" height="80" as="geometry" />
        </mxCell>
        <mxCell id="LRPS0VtPIhEllnDsEcMT-41" value="Deconectare" style="ellipse;whiteSpace=wrap;html=1;direction=east;fontSize=16;" vertex="1" parent="WIyWlLk6GJQsqaUBKTNV-1">
          <mxGeometry x="2230" y="1540" width="120" height="80" as="geometry" />
        </mxCell>
        <mxCell id="LRPS0VtPIhEllnDsEcMT-42" style="edgeStyle=orthogonalEdgeStyle;rounded=0;orthogonalLoop=1;jettySize=auto;html=1;dashed=1;fontSize=16;" edge="1" parent="WIyWlLk6GJQsqaUBKTNV-1" source="LRPS0VtPIhEllnDsEcMT-43" target="LRPS0VtPIhEllnDsEcMT-35">
          <mxGeometry relative="1" as="geometry" />
        </mxCell>
        <mxCell id="LRPS0VtPIhEllnDsEcMT-43" value="Incarcare sold" style="ellipse;whiteSpace=wrap;html=1;direction=east;fontSize=16;" vertex="1" parent="WIyWlLk6GJQsqaUBKTNV-1">
          <mxGeometry x="2380" y="1000" width="120" height="80" as="geometry" />
        </mxCell>
        <mxCell id="LRPS0VtPIhEllnDsEcMT-44" style="edgeStyle=orthogonalEdgeStyle;rounded=0;orthogonalLoop=1;jettySize=auto;html=1;dashed=1;entryX=1;entryY=0.5;entryDx=0;entryDy=0;fontSize=16;" edge="1" parent="WIyWlLk6GJQsqaUBKTNV-1" source="LRPS0VtPIhEllnDsEcMT-52" target="LRPS0VtPIhEllnDsEcMT-34">
          <mxGeometry relative="1" as="geometry" />
        </mxCell>
        <mxCell id="LRPS0VtPIhEllnDsEcMT-46" value="Adaugare in cos" style="ellipse;whiteSpace=wrap;html=1;direction=east;fontSize=16;" vertex="1" parent="WIyWlLk6GJQsqaUBKTNV-1">
          <mxGeometry x="2550" y="910" width="120" height="80" as="geometry" />
        </mxCell>
        <mxCell id="LRPS0VtPIhEllnDsEcMT-47" style="edgeStyle=orthogonalEdgeStyle;rounded=0;orthogonalLoop=1;jettySize=auto;html=1;dashed=1;fontSize=16;" edge="1" parent="WIyWlLk6GJQsqaUBKTNV-1" source="LRPS0VtPIhEllnDsEcMT-48" target="LRPS0VtPIhEllnDsEcMT-37">
          <mxGeometry relative="1" as="geometry" />
        </mxCell>
        <mxCell id="LRPS0VtPIhEllnDsEcMT-48" value="Plasare comanda" style="ellipse;whiteSpace=wrap;html=1;direction=east;fontSize=16;" vertex="1" parent="WIyWlLk6GJQsqaUBKTNV-1">
          <mxGeometry x="2380" y="1180" width="120" height="80" as="geometry" />
        </mxCell>
        <mxCell id="LRPS0VtPIhEllnDsEcMT-49" style="edgeStyle=orthogonalEdgeStyle;rounded=0;orthogonalLoop=1;jettySize=auto;html=1;dashed=1;entryX=1;entryY=0.5;entryDx=0;entryDy=0;fontSize=16;" edge="1" parent="WIyWlLk6GJQsqaUBKTNV-1" source="LRPS0VtPIhEllnDsEcMT-50" target="LRPS0VtPIhEllnDsEcMT-38">
          <mxGeometry relative="1" as="geometry" />
        </mxCell>
        <mxCell id="LRPS0VtPIhEllnDsEcMT-50" value="Editare profil" style="ellipse;whiteSpace=wrap;html=1;direction=east;fontSize=16;" vertex="1" parent="WIyWlLk6GJQsqaUBKTNV-1">
          <mxGeometry x="2380" y="1270" width="120" height="80" as="geometry" />
        </mxCell>
        <mxCell id="LRPS0VtPIhEllnDsEcMT-51" style="edgeStyle=orthogonalEdgeStyle;rounded=0;orthogonalLoop=1;jettySize=auto;html=1;dashed=1;entryX=1;entryY=0.5;entryDx=0;entryDy=0;fontSize=16;" edge="1" parent="WIyWlLk6GJQsqaUBKTNV-1" source="LRPS0VtPIhEllnDsEcMT-52" target="LRPS0VtPIhEllnDsEcMT-34">
          <mxGeometry relative="1" as="geometry" />
        </mxCell>
        <mxCell id="LRPS0VtPIhEllnDsEcMT-52" value="Vizualizare Produs" style="ellipse;whiteSpace=wrap;html=1;direction=east;fontSize=16;" vertex="1" parent="WIyWlLk6GJQsqaUBKTNV-1">
          <mxGeometry x="2380" y="910" width="120" height="80" as="geometry" />
        </mxCell>
        <mxCell id="LRPS0VtPIhEllnDsEcMT-53" style="edgeStyle=orthogonalEdgeStyle;rounded=0;orthogonalLoop=1;jettySize=auto;html=1;entryX=1;entryY=0.5;entryDx=0;entryDy=0;dashed=1;exitX=0;exitY=0.5;exitDx=0;exitDy=0;fontSize=16;" edge="1" parent="WIyWlLk6GJQsqaUBKTNV-1" target="LRPS0VtPIhEllnDsEcMT-52" source="LRPS0VtPIhEllnDsEcMT-54">
          <mxGeometry relative="1" as="geometry">
            <mxPoint x="2720" y="820" as="sourcePoint" />
          </mxGeometry>
        </mxCell>
        <mxCell id="LRPS0VtPIhEllnDsEcMT-54" value="Randare Model" style="ellipse;whiteSpace=wrap;html=1;direction=east;fontSize=16;" vertex="1" parent="WIyWlLk6GJQsqaUBKTNV-1">
          <mxGeometry x="2550" y="820" width="120" height="80" as="geometry" />
        </mxCell>
        <mxCell id="LRPS0VtPIhEllnDsEcMT-56" style="edgeStyle=orthogonalEdgeStyle;rounded=0;orthogonalLoop=1;jettySize=auto;html=1;dashed=1;exitX=0;exitY=0.5;exitDx=0;exitDy=0;endArrow=none;endFill=0;fontSize=16;" edge="1" parent="WIyWlLk6GJQsqaUBKTNV-1" source="LRPS0VtPIhEllnDsEcMT-46">
          <mxGeometry relative="1" as="geometry">
            <mxPoint x="2660" y="1000" as="sourcePoint" />
            <mxPoint x="2530" y="950" as="targetPoint" />
          </mxGeometry>
        </mxCell>
      </root>
    </mxGraphModel>
  </diagram>
</mxfile>
